***** Scooby-Doo.Camp.Scare.2010.DVDRiP.XViD.SWEDISH-Zen_Bud *****

Format                           : AVI
Format profile                   : OpenDML
File size                        : 700 MiB
Duration                         : 1h 9mn
Overall bit rate                 : 1 407 Kbps
Writing application              : AVI-Mux GUI 1.17.8.3

Video

Format                           : MPEG-4 Visual
Codec ID/Hint                    : XviD
Duration                         : 1h 9mn
Bit rate                         : 1 275 Kbps
Width                            : 720 pixels
Height                           : 576 pixels
Display aspect ratio             : 16:9
Stream size                      : 634 MiB (91%)
Writing library                  : XviD 1.1.2 (UTC 2006-11-01)

Audio

Format                           : MPEG Audio
Codec ID/Hint                    : MP3
Duration                         : 1h 9mn
Bit rate                         : 128 Kbps
Channel(s)                       : 2 channels
Sampling rate                    : 48.0 KHz
Stream size                      : 63.7 MiB (9%)
Writing library                  : LAME3.98
Language                         : Swedish

